<?xml version="1.0" encoding="UTF-8"?>
<svg id="Capa_1" xmlns="http://www.w3.org/2000/svg" version="1.1" viewBox="0 0 24 24">
  <!-- Generator: Adobe Illustrator 30.2.1, SVG Export Plug-In . SVG Version: 2.1.1 Build 1)  -->
  <defs>
    <style>
      .st0 {
        fill: #fff;
      }
    </style>
  </defs>
  <path class="st0" d="M8,13h8v-2h-8v2ZM8,16h8v-2h-8v2ZM8,19h5v-2h-5v2ZM6,22c-.55,0-1.02-.2-1.41-.59s-.59-.86-.59-1.41V4c0-.55.2-1.02.59-1.41s.86-.59,1.41-.59h8l6,6v12c0,.55-.2,1.02-.59,1.41s-.86.59-1.41.59H6ZM13,9V4h-7v16h12v-11h-5ZM6,4v5V4v16V4Z"/>
</svg>