<?xml version="1.0" encoding="UTF-8"?>
<svg id="Capa_1" xmlns="http://www.w3.org/2000/svg" version="1.1" viewBox="0 0 24 24">
  <!-- Generator: Adobe Illustrator 30.2.1, SVG Export Plug-In . SVG Version: 2.1.1 Build 1)  -->
  <defs>
    <style>
      .st0 {
        fill: #fff;
      }
    </style>
  </defs>
  <path class="st0" d="M3,18.5v-2h2v2h-2ZM3,15v-2h2v2h-2ZM3,11.5v-2h2v2h-2ZM6.5,22v-2h2v2h-2ZM9,18c-.55,0-1.02-.2-1.41-.59-.39-.39-.59-.86-.59-1.41V4c0-.55.2-1.02.59-1.41s.86-.59,1.41-.59h9c.55,0,1.02.2,1.41.59s.59.86.59,1.41v12c0,.55-.2,1.02-.59,1.41-.39.39-.86.59-1.41.59h-9ZM9,16h9V4h-9v12ZM10,22v-2h2v2h-2ZM5,22c-.55,0-1.02-.2-1.41-.59-.39-.39-.59-.86-.59-1.41h2v2ZM13.5,22v-2h2c0,.55-.2,1.02-.59,1.41s-.86.59-1.41.59ZM3,8c0-.55.2-1.02.59-1.41.39-.39.86-.59,1.41-.59v2h-2Z"/>
</svg>